<?xml version="1.0" standalone="no"?><!DOCTYPE svg PUBLIC "-//W3C//DTD SVG 1.1//EN" "http://www.w3.org/Graphics/SVG/1.1/DTD/svg11.dtd"><svg t="1537491273876" class="icon" style="" viewBox="0 0 1024 1024" version="1.1" xmlns="http://www.w3.org/2000/svg" p-id="4296" xmlns:xlink="http://www.w3.org/1999/xlink" width="200" height="200"><defs><style type="text/css"></style></defs><path d="M800.421 436.525h-63.661v-148.673c0-124.507-100.762-225.757-224.732-225.757-123.98 0-224.857 101.25-224.857 225.766v148.662h-63.593c-30.667 0-55.532 24.952-55.532 55.752v407.048c0 30.848 24.865 55.82 55.532 55.82h576.9c30.667 0 55.465-24.97 55.465-55.82v-407.048c0-30.802-24.855-55.752-55.532-55.752zM543.203 706.409v88.88c-0.016 4.026-3.264 7.287-7.282 7.325h-47.733c-4.039-0.022-7.307-3.287-7.334-7.322v-88.882c-22.423-11.518-37.953-34.602-37.953-61.659 0-38.288 30.945-69.425 69.070-69.425 38.183 0 69.138 31.136 69.138 69.415 0.057 27.067-15.473 50.152-37.905 61.659zM650.514 436.525h-276.989v-144.986c0-76.691 62.196-139.146 138.552-139.146 76.366 0 138.447 62.454 138.447 139.146v144.986z" p-id="4297" fill="#515151"></path></svg>