<?xml version="1.0" standalone="no"?><!DOCTYPE svg PUBLIC "-//W3C//DTD SVG 1.1//EN" "http://www.w3.org/Graphics/SVG/1.1/DTD/svg11.dtd"><svg t="1537341072815" class="icon" style="" viewBox="0 0 1024 1024" version="1.1" xmlns="http://www.w3.org/2000/svg" p-id="14082" xmlns:xlink="http://www.w3.org/1999/xlink" width="200" height="200"><defs><style type="text/css"></style></defs><path d="M624.384 264.72l0-78.432c0-11.728-9.552-21.264-21.264-21.264L427.952 165.024c-11.712 0-21.264 9.536-21.264 21.264l0 78.432-116.72 0 0-78.432c0-76.096 61.888-138 137.984-138l175.168 0c76.064 0 137.968 61.904 137.968 138l0 78.432L624.384 264.72z" p-id="14083" fill="#ffffff"></path><path d="M875.808 332.976 155.232 332.976c-43.984 0-79.6 35.632-79.6 79.616l0 349.12c-0.192 13.344-0.224 26.656 0 40l0 96.576c0 43.968 35.616 79.616 79.6 79.616l720.576 0c43.984 0 79.632-35.648 79.632-79.616L955.44 412.608C955.44 368.624 919.792 332.976 875.808 332.976zM515.52 850.528c-107.728 0-195.088-87.344-195.088-195.088 0-107.728 87.344-195.072 195.088-195.072s195.072 87.344 195.072 195.072C710.592 763.184 623.264 850.528 515.52 850.528z" p-id="14084" fill="#ffffff"></path><path d="M547.392 545.952 483.68 545.952 483.68 623.616 406.048 623.616 406.048 687.296 483.68 687.296 483.68 764.928 547.392 764.928 547.392 687.296 625.008 687.296 625.008 623.616 547.392 623.616Z" p-id="14085" fill="#ffffff"></path></svg>